<?xml version="1.0" encoding="UTF-8" standalone="no"?>
<!-- Created with Inkscape (http://www.inkscape.org/) -->

<svg
   width="420"
   height="84"
   viewBox="0 0 420 84"
   version="1.1"
   id="svg5"
   sodipodi:docname="logo.svg"
   inkscape:version="1.1.1 (3bf5ae0d25, 2021-09-20)"
   xmlns:inkscape="http://www.inkscape.org/namespaces/inkscape"
   xmlns:sodipodi="http://sodipodi.sourceforge.net/DTD/sodipodi-0.dtd"
   xmlns="http://www.w3.org/2000/svg"
   xmlns:svg="http://www.w3.org/2000/svg">
  <sodipodi:namedview
     id="namedview9"
     pagecolor="#505050"
     bordercolor="#eeeeee"
     borderopacity="1"
     inkscape:pageshadow="0"
     inkscape:pageopacity="0"
     inkscape:pagecheckerboard="0"
     showgrid="false"
     inkscape:zoom="2.552381"
     inkscape:cx="210"
     inkscape:cy="42.117537"
     inkscape:window-width="1920"
     inkscape:window-height="1057"
     inkscape:window-x="1912"
     inkscape:window-y="-8"
     inkscape:window-maximized="1"
     inkscape:current-layer="layer1" />
  <defs
     id="defs2">
    <rect
       x="707.83411"
       y="649.43781"
       width="449.47467"
       height="125.64055"
       id="rect15675" />
  </defs>
  <g
     id="layer1"
     transform="matrix(1.0431144,0,0,1.0431144,-831.5624,-547.38831)">
    <g
       aria-label="ultimengine"
       transform="translate(83.170507,-148.64516)"
       id="text15673"
       style="font-size:40px;line-height:1.25;white-space:pre;shape-inside:url(#rect15675)">
      <path
         d="m 744.95898,695.0649 v 37.125 q 0,3.09375 -3.09375,3.09375 h -15.46875 q -5.20312,0 -8.8125,-3.5625 -3.5625,-3.60937 -3.5625,-8.8125 V 695.0649 q 0,-3.09375 3.09375,-3.09375 3.09375,0 3.09375,3.09375 v 27.84375 q 0,2.53125 1.82813,4.35938 1.82812,1.82812 4.35937,1.82812 h 12.375 V 695.0649 q 0,-3.09375 3.09375,-3.09375 3.09375,0 3.09375,3.09375 z"
         style="font-size:96px;font-family:ISOCPEUR;-inkscape-font-specification:'ISOCPEUR, Normal'"
         id="path129" />
      <path
         d="m 757.33398,676.5024 q 0,-3.09375 3.09375,-3.09375 3.09375,0 3.09375,3.09375 v 49.5 q 0,2.39063 3.09375,3.09375 3.09375,0.70313 3.09375,3.09375 0,3.09375 -3.09375,3.09375 -4.17187,0 -6.75,-2.4375 -2.53125,-2.48437 -2.53125,-6.84375 z"
         style="font-size:96px;font-family:ISOCPEUR;-inkscape-font-specification:'ISOCPEUR, Normal'"
         id="path131" />
      <path
         d="m 788.27148,698.15865 h -3.09375 q -3.09375,0 -3.09375,-3.09375 0,-3.09375 3.09375,-3.09375 h 3.09375 V 676.5024 q 0,-3.09375 3.09375,-3.09375 3.09375,0 3.09375,3.09375 v 15.46875 h 9.28125 q 3.09375,0 3.09375,3.09375 0,3.09375 -3.09375,3.09375 h -9.28125 v 34.03125 q 0,3.09375 -3.09375,3.09375 -3.09375,0 -3.09375,-3.09375 z"
         style="font-size:96px;font-family:ISOCPEUR;-inkscape-font-specification:'ISOCPEUR, Normal'"
         id="path133" />
      <path
         d="m 819.20898,695.0649 q 0,-3.09375 3.09375,-3.09375 3.09375,0 3.09375,3.09375 v 37.125 q 0,3.09375 -3.09375,3.09375 -3.09375,0 -3.09375,-3.09375 z m 0,-15.46875 v -3.09375 q 0,-3.09375 3.09375,-3.09375 3.09375,0 3.09375,3.09375 v 3.09375 q 0,3.09375 -3.09375,3.09375 -3.09375,0 -3.09375,-3.09375 z"
         style="font-size:96px;font-family:ISOCPEUR;-inkscape-font-specification:'ISOCPEUR, Normal'"
         id="path135" />
      <path
         d="m 840.86523,691.97115 h 27.84375 q 5.20313,0 8.76563,3.60938 3.60937,3.5625 3.60937,8.76562 v 27.84375 q 0,3.09375 -3.09375,3.09375 -3.09375,0 -3.09375,-3.09375 v -27.84375 q 0,-2.625 -1.78125,-4.40625 -1.78125,-1.78125 -4.40625,-1.78125 h -6.1875 v 34.03125 q 0,3.09375 -3.09375,3.09375 -3.09375,0 -3.09375,-3.09375 v -34.03125 h -12.375 v 34.03125 q 0,3.09375 -3.09375,3.09375 -3.09375,0 -3.09375,-3.09375 v -37.125 q 0,-3.09375 3.09375,-3.09375 z"
         style="font-size:96px;font-family:ISOCPEUR;-inkscape-font-specification:'ISOCPEUR, Normal'"
         id="path137" />
      <path
         d="m 908.92773,698.15865 q -3.84375,0 -6.5625,2.71875 -2.71875,2.71875 -2.71875,6.5625 v 3.09375 h 18.5625 v -3.09375 q 0,-3.84375 -2.71875,-6.5625 -2.71875,-2.71875 -6.5625,-2.71875 z m -9.28125,18.5625 v 6.1875 q 0,2.53125 1.82813,4.35938 1.82812,1.82812 4.35937,1.82812 h 15.46875 q 3.09375,0 3.09375,3.09375 0,3.09375 -3.09375,3.09375 h -15.46875 q -5.20312,0 -8.8125,-3.5625 -3.5625,-3.60937 -3.5625,-8.8125 V 707.4399 q 0,-6.42187 4.5,-10.92187 4.54688,-4.54688 10.96875,-4.54688 6.51563,0 10.96875,4.5 4.5,4.45313 4.5,10.96875 v 9.28125 z"
         style="font-size:96px;font-family:ISOCPEUR;-inkscape-font-specification:'ISOCPEUR, Normal'"
         id="path139" />
      <path
         d="m 936.77148,732.1899 v -37.125 q 0,-3.09375 3.09375,-3.09375 h 15.46875 q 5.20313,0 8.76563,3.60938 3.60937,3.5625 3.60937,8.76562 v 27.84375 q 0,3.09375 -3.09375,3.09375 -3.09375,0 -3.09375,-3.09375 v -27.84375 q 0,-2.625 -1.78125,-4.40625 -1.78125,-1.78125 -4.40625,-1.78125 h -12.375 v 34.03125 q 0,3.09375 -3.09375,3.09375 -3.09375,0 -3.09375,-3.09375 z"
         style="font-size:96px;font-family:ISOCPEUR;-inkscape-font-specification:'ISOCPEUR, Normal'"
         id="path141" />
      <path
         d="m 1007.9277,691.97115 q 3.0938,0 3.0938,3.09375 v 46.40625 q 0,5.20313 -3.6094,8.76563 -3.5625,3.60937 -8.76562,3.60937 h -12.375 q -3.09375,0 -3.09375,-3.09375 0,-3.09375 3.09375,-3.09375 h 12.375 q 2.57812,0 4.35942,-1.82812 1.8281,-1.78125 1.8281,-4.35938 v -6.1875 h -12.37502 q -7.21875,0 -10.73437,-6.14062 -1.64063,-2.85938 -1.64063,-6.23438 v -18.5625 q 0,-5.20312 3.5625,-8.76562 3.60938,-3.60938 8.8125,-3.60938 z m -3.0937,6.1875 h -12.37502 q -2.57812,0 -4.40625,1.82813 -1.78125,1.78125 -1.78125,4.35937 v 18.5625 q 0,2.53125 1.82813,4.35938 1.82812,1.82812 4.35937,1.82812 h 12.37502 z"
         style="font-size:96px;font-family:ISOCPEUR;-inkscape-font-specification:'ISOCPEUR, Normal'"
         id="path143" />
      <path
         d="m 1023.3965,695.0649 q 0,-3.09375 3.0937,-3.09375 3.0938,0 3.0938,3.09375 v 37.125 q 0,3.09375 -3.0938,3.09375 -3.0937,0 -3.0937,-3.09375 z m 0,-15.46875 v -3.09375 q 0,-3.09375 3.0937,-3.09375 3.0938,0 3.0938,3.09375 v 3.09375 q 0,3.09375 -3.0938,3.09375 -3.0937,0 -3.0937,-3.09375 z"
         style="font-size:96px;font-family:ISOCPEUR;-inkscape-font-specification:'ISOCPEUR, Normal'"
         id="path145" />
      <path
         d="m 1041.959,732.1899 v -37.125 q 0,-3.09375 3.0937,-3.09375 h 15.4688 q 5.2031,0 8.7656,3.60938 3.6094,3.5625 3.6094,8.76562 v 27.84375 q 0,3.09375 -3.0938,3.09375 -3.0937,0 -3.0937,-3.09375 v -27.84375 q 0,-2.625 -1.7813,-4.40625 -1.7812,-1.78125 -4.4062,-1.78125 h -12.375 v 34.03125 q 0,3.09375 -3.0938,3.09375 -3.0937,0 -3.0937,-3.09375 z"
         style="font-size:96px;font-family:ISOCPEUR;-inkscape-font-specification:'ISOCPEUR, Normal'"
         id="path147" />
      <path
         d="m 1100.7402,698.15865 q -3.8437,0 -6.5625,2.71875 -2.7187,2.71875 -2.7187,6.5625 v 3.09375 h 18.5625 v -3.09375 q 0,-3.84375 -2.7188,-6.5625 -2.7187,-2.71875 -6.5625,-2.71875 z m -9.2812,18.5625 v 6.1875 q 0,2.53125 1.8281,4.35938 1.8281,1.82812 4.3594,1.82812 h 15.4687 q 3.0938,0 3.0938,3.09375 0,3.09375 -3.0938,3.09375 h -15.4687 q -5.2031,0 -8.8125,-3.5625 -3.5625,-3.60937 -3.5625,-8.8125 V 707.4399 q 0,-6.42187 4.5,-10.92187 4.5469,-4.54688 10.9687,-4.54688 6.5157,0 10.9688,4.5 4.5,4.45313 4.5,10.96875 v 9.28125 z"
         style="font-size:96px;font-family:ISOCPEUR;-inkscape-font-specification:'ISOCPEUR, Normal'"
         id="path149" />
    </g>
  </g>
</svg>
